<?xml version="1.0" standalone="no"?>
<!DOCTYPE svg PUBLIC "-//W3C//DTD SVG 20010904//EN"
 "http://www.w3.org/TR/2001/REC-SVG-20010904/DTD/svg10.dtd">
<svg version="1.0" xmlns="http://www.w3.org/2000/svg"
 width="1200.000000pt" height="1200.000000pt" viewBox="0 0 1200.000000 1200.000000"
 preserveAspectRatio="xMidYMid meet">

<g transform="translate(0.000000,1200.000000) scale(0.100000,-0.100000)"
fill="#000000" stroke="none">
<path d="M6200 6510 l0 -1890 1890 0 1890 0 0 1890 0 1890 -1890 0 -1890 0 0
-1890z m1070 656 c72 -16 168 -49 193 -69 14 -10 14 -15 2 -30 -13 -18 -15
-18 -55 3 -62 32 -185 60 -260 60 -219 0 -431 -133 -529 -331 -122 -248 -82
-507 109 -700 176 -179 438 -230 655 -128 l45 21 0 194 0 194 -145 0 -145 0 0
25 0 25 170 0 170 0 0 -235 0 -235 -37 -19 c-68 -34 -177 -62 -263 -68 -314
-19 -602 209 -666 527 -49 247 55 508 262 656 149 107 326 146 494 110z m680
-21 c0 -24 -2 -25 -71 -25 -53 0 -70 -3 -66 -12 13 -33 333 -795 403 -960 43
-103 81 -188 84 -188 3 0 20 42 39 93 19 50 87 215 153 366 l120 275 -89 213
-88 213 -77 0 c-76 0 -78 0 -78 25 l0 25 170 0 170 0 0 -25 c0 -24 -2 -25 -65
-25 -36 0 -65 -3 -65 -6 0 -7 317 -771 403 -969 35 -82 68 -161 72 -175 8 -24
8 -24 16 -5 5 11 114 273 244 583 129 310 235 565 235 568 0 2 -27 4 -60 4
-57 0 -60 1 -60 25 l0 25 170 0 170 0 0 -25 c0 -25 -1 -25 -82 -25 l-83 0
-204 -488 c-363 -866 -332 -798 -346 -771 -7 13 -81 188 -166 389 -84 201
-156 369 -159 373 -4 5 -27 -40 -50 -100 -69 -170 -280 -667 -288 -675 -4 -4
-128 281 -276 632 l-269 640 -74 0 c-71 0 -73 1 -73 25 l0 25 170 0 170 0 0
-25z"/>
<path d="M3653 6522 c-238 -565 -435 -1035 -439 -1044 -5 -16 2 -18 74 -18 52
0 83 4 90 13 10 13 872 2058 872 2070 0 4 -37 7 -82 7 l-83 0 -432 -1028z"/>
<path d="M2337 7030 c-285 -282 -516 -518 -515 -524 2 -6 236 -243 521 -526
l517 -515 0 125 0 125 -401 394 -401 394 402 402 401 401 -3 118 -3 119 -518
-513z"/>
<path d="M4600 7421 l0 -119 402 -397 402 -396 -402 -402 -402 -402 0 -118 0
-119 525 518 526 518 -518 518 c-285 285 -521 518 -525 518 -5 0 -8 -54 -8
-119z"/>
<path d="M2632 3968 c-33 -79 -79 -189 -103 -245 -40 -96 -45 -103 -71 -103
-15 0 -28 -4 -28 -10 0 -6 28 -10 65 -10 37 0 65 4 65 10 0 6 -11 10 -25 10
-14 0 -25 2 -25 4 0 2 18 46 39 97 l39 94 108 0 108 0 37 -90 c21 -49 39 -93
39 -97 0 -5 -11 -8 -25 -8 -14 0 -25 -4 -25 -10 0 -6 28 -10 65 -10 37 0 65 4
65 10 0 6 -12 10 -27 10 -27 0 -32 9 -127 238 -55 130 -102 241 -106 245 -4 5
-34 -56 -68 -135z m112 -12 c26 -60 46 -111 46 -112 0 -2 -43 -4 -96 -4 -53 0
-94 4 -92 8 2 4 23 56 47 115 25 58 46 105 47 104 2 -1 23 -52 48 -111z"/>
<path d="M8456 4043 c-147 -358 -178 -423 -201 -423 -13 0 -27 -4 -30 -10 -4
-6 18 -10 59 -10 63 0 92 15 42 22 l-25 3 41 98 41 97 106 0 106 0 41 -100 42
-100 -29 0 c-16 0 -29 -4 -29 -10 0 -6 28 -10 65 -10 64 0 91 16 38 22 -26 3
-34 18 -126 238 -54 129 -102 238 -106 243 -4 4 -20 -23 -35 -60z m82 -90 c23
-56 42 -104 42 -107 0 -3 -43 -6 -95 -6 l-94 0 36 83 c19 45 40 97 46 115 6
18 13 29 17 25 4 -5 25 -54 48 -110z"/>
<path d="M1912 4064 c-85 -42 -133 -121 -134 -218 0 -103 49 -179 149 -230 40
-20 142 -21 188 -2 l35 15 0 90 0 91 -65 0 c-37 0 -65 -4 -65 -10 0 -5 25 -10
55 -10 l55 0 0 -75 c0 -73 -1 -76 -27 -86 -47 -19 -133 -15 -178 9 -81 41
-127 114 -127 201 -1 95 45 172 128 212 53 25 135 29 184 9 41 -17 50 -6 11
14 -49 26 -147 21 -209 -10z"/>
<path d="M3240 4080 c0 -5 11 -10 25 -10 l25 0 0 -225 0 -225 -25 0 c-14 0
-25 -4 -25 -10 0 -6 28 -10 65 -10 37 0 65 4 65 10 0 6 -13 10 -30 10 l-30 0
0 110 0 110 49 0 48 0 56 -120 c57 -120 57 -120 92 -120 44 0 46 18 3 22 -29
3 -34 9 -79 108 -26 58 -48 107 -48 110 -1 4 15 12 34 19 93 33 86 177 -11
217 -39 16 -214 19 -214 4z m210 -25 c83 -43 80 -153 -7 -186 -13 -5 -49 -9
-79 -9 l-54 0 0 105 0 105 55 0 c31 0 69 -7 85 -15z"/>
<path d="M3870 4081 c0 -5 12 -11 27 -13 23 -3 40 -24 110 -138 l83 -135 0
-87 c0 -87 0 -88 -25 -88 -14 0 -25 -4 -25 -10 0 -6 28 -10 65 -10 37 0 65 4
65 10 0 6 -11 10 -25 10 -25 0 -25 1 -25 86 l0 86 83 138 c73 125 85 139 110
140 15 0 27 5 27 10 0 6 -28 10 -65 10 -63 0 -91 -15 -40 -22 24 -3 23 -6 -50
-128 -41 -69 -77 -125 -80 -125 -4 0 -155 244 -155 252 0 1 11 3 25 3 14 0 25
5 25 10 0 6 -28 10 -65 10 -36 0 -65 -4 -65 -9z"/>
<path d="M5060 4080 c0 -5 13 -10 29 -10 28 0 31 -6 121 -217 51 -120 97 -231
103 -246 5 -16 13 -25 17 -20 5 4 36 73 69 153 l60 144 21 -49 c12 -28 40 -94
62 -147 22 -54 44 -98 48 -98 4 0 52 107 107 238 99 234 101 237 132 240 57 6
32 22 -34 22 -62 0 -91 -15 -42 -22 23 -3 22 -8 -67 -220 -50 -120 -93 -218
-96 -218 -3 0 -46 98 -96 218 -90 213 -91 217 -68 220 50 7 21 22 -41 22 -66
0 -91 -16 -33 -22 29 -3 34 -9 64 -81 l32 -78 -55 -132 c-30 -73 -58 -135 -62
-140 -4 -4 -48 91 -99 210 -91 217 -91 218 -67 221 51 7 23 22 -40 22 -37 0
-65 -4 -65 -10z"/>
<path d="M6140 4080 c0 -5 14 -10 30 -10 l30 0 0 -225 0 -225 -30 0 c-16 0
-30 -4 -30 -10 0 -6 28 -10 65 -10 37 0 65 4 65 10 0 6 -11 10 -25 10 l-25 0
0 225 0 225 25 0 c14 0 25 5 25 10 0 6 -28 10 -65 10 -37 0 -65 -4 -65 -10z"/>
<path d="M6550 4080 c0 -5 11 -10 25 -10 l25 0 0 -225 0 -225 -25 0 c-14 0
-25 -4 -25 -10 0 -6 65 -10 175 -10 l175 0 0 55 c0 30 -4 55 -10 55 -5 0 -10
-20 -10 -45 l0 -45 -130 0 -130 0 0 225 0 225 30 0 c17 0 30 5 30 10 0 6 -28
10 -65 10 -37 0 -65 -4 -65 -10z"/>
<path d="M7180 4080 c0 -5 11 -10 25 -10 l25 0 0 -225 0 -225 -25 0 c-14 0
-25 -4 -25 -10 0 -6 65 -10 175 -10 l175 0 0 55 c0 30 -4 55 -10 55 -5 0 -10
-20 -10 -45 l0 -45 -130 0 -130 0 0 225 0 225 30 0 c17 0 30 5 30 10 0 6 -28
10 -65 10 -37 0 -65 -4 -65 -10z"/>
<path d="M7810 4080 c0 -5 14 -10 30 -10 l30 0 0 -225 0 -225 -30 0 c-16 0
-30 -4 -30 -10 0 -6 28 -10 65 -10 37 0 65 4 65 10 0 6 -11 10 -25 10 l-25 0
0 225 0 225 25 0 c14 0 25 5 25 10 0 6 -28 10 -65 10 -37 0 -65 -4 -65 -10z"/>
<path d="M9030 4080 c0 -5 14 -10 30 -10 l30 0 0 -225 0 -225 -30 0 c-16 0
-30 -4 -30 -10 0 -6 28 -10 65 -10 37 0 65 4 65 10 0 6 -13 10 -30 10 l-30 0
0 216 c0 172 3 214 13 206 6 -6 59 -74 117 -151 58 -77 108 -140 111 -141 3 0
53 61 110 137 57 75 109 143 116 152 10 13 12 -28 13 -201 l0 -218 -25 0 c-14
0 -25 -4 -25 -10 0 -6 28 -10 65 -10 37 0 65 4 65 10 0 6 -13 10 -30 10 l-30
0 0 225 0 225 24 0 c14 0 28 5 31 10 4 6 -9 10 -33 10 -39 0 -40 -2 -158 -155
l-119 -156 -28 33 c-15 18 -69 88 -120 155 -89 118 -93 122 -129 123 -21 0
-38 -4 -38 -10z"/>
<path d="M10018 4074 c-35 -18 -58 -62 -58 -108 0 -52 40 -89 125 -117 89 -29
125 -62 125 -118 0 -101 -128 -150 -226 -86 -16 11 -24 25 -24 45 0 17 -5 30
-11 30 -6 0 -9 -15 -7 -37 5 -58 41 -78 140 -78 79 0 80 0 114 37 29 32 34 45
34 87 0 72 -29 102 -129 136 -92 30 -121 56 -121 108 0 52 34 88 90 94 25 3
57 0 73 -6 22 -9 27 -17 27 -46 0 -19 5 -35 10 -35 6 0 10 18 10 41 0 36 -3
41 -35 55 -44 18 -102 17 -137 -2z"/>
</g>
</svg>
